<svg
  xmlns="http://www.w3.org/2000/svg"
  width="128"
  height="128"
  viewBox="0 0 128 128"
  fill="none"
>
  <defs>
    <linearGradient id="shield-blue" x1="30" y1="18" x2="95" y2="111" gradientUnits="userSpaceOnUse">
      <stop offset="0" stop-color="#94DAFF" />
      <stop offset="1" stop-color="#447FD5" />
    </linearGradient>
    <linearGradient id="tab-orange" x1="64" y1="15" x2="108" y2="32" gradientUnits="userSpaceOnUse">
      <stop offset="0" stop-color="#FFC860" />
      <stop offset="1" stop-color="#F08A1E" />
    </linearGradient>
    <linearGradient id="shoulder-highlight" x1="46" y1="30" x2="75" y2="48" gradientUnits="userSpaceOnUse">
      <stop offset="0" stop-color="#F0FAFF" stop-opacity="0.9" />
      <stop offset="1" stop-color="#C3E7FF" stop-opacity="0.2" />
    </linearGradient>
  </defs>

  <path
    d="M64 17C74.3 25.7 88.1 30 99 30V61C99 82.6 85.9 99.4 64 112C42.1 99.4 29 82.6 29 61V30C39.9 30 53.7 25.7 64 17Z"
    fill="#E3493D"
  />

  <path
    d="M64 22.4C72.8 29.4 84.4 33 92.8 33V60.9C92.8 79.5 81.7 94.3 64 105C46.3 94.3 35.2 79.5 35.2 60.9V33C43.6 33 55.2 29.4 64 22.4Z"
    fill="url(#shield-blue)"
  />

  <path
    d="M44.4 35.6C53.6 33.9 60.7 29.5 64 26.9C68 29.8 74 33.4 82.1 35.1C80.8 39 77 41.8 72.7 41.8H53.4C49 41.8 45.5 39.2 44.4 35.6Z"
    fill="url(#shoulder-highlight)"
  />

  <path
    d="M64 16H100C104.4 16 108 19.6 108 24V32H71.3C67.3 32 64 28.7 64 24.7V16Z"
    fill="url(#tab-orange)"
  />
</svg>
