<svg
  xmlns="http://www.w3.org/2000/svg"
  width="128"
  height="128"
  viewBox="0 0 128 128"
  fill="none"
>
  <defs>
    <linearGradient id="tbr-blue" x1="18" y1="18" x2="104" y2="110" gradientUnits="userSpaceOnUse">
      <stop offset="0" stop-color="#78C0FF" />
      <stop offset="1" stop-color="#4B83D8" />
    </linearGradient>
    <linearGradient id="tbr-blue-gloss" x1="28" y1="16" x2="79" y2="46" gradientUnits="userSpaceOnUse">
      <stop offset="0" stop-color="#B9E2FF" stop-opacity="0.95" />
      <stop offset="1" stop-color="#B9E2FF" stop-opacity="0" />
    </linearGradient>
    <linearGradient id="tbr-warn" x1="86" y1="16" x2="112" y2="42" gradientUnits="userSpaceOnUse">
      <stop offset="0" stop-color="#FFBE57" />
      <stop offset="1" stop-color="#D84A3C" />
    </linearGradient>
  </defs>

  <path
    d="M24 16H59C65.2 16 69.9 18 74 22.1L86.4 34H100C106.6 34 112 39.4 112 46V100C112 106.6 106.6 112 100 112H28C21.4 112 16 106.6 16 100V28C16 21.4 18.8 16 24 16Z"
    fill="url(#tbr-blue)"
  />

  <path
    d="M24 16H59C65.2 16 69.9 18 74 22.1L86.4 34H74.8C69.9 34 66.2 32.4 63 29.2L54.8 21.6C53.4 20.3 51.5 19.6 49.5 19.6H24Z"
    fill="url(#tbr-blue-gloss)"
  />

  <path
    d="M87 16H100C106.6 16 112 21.4 112 28V40H93.5C89.4 40 86 36.6 86 32.5V17C86 16.4 86.4 16 87 16Z"
    fill="url(#tbr-warn)"
  />

  <path
    d="M24 16H59C65.2 16 69.9 18 74 22.1L86.4 34H100C106.6 34 112 39.4 112 46V100C112 106.6 106.6 112 100 112H28C21.4 112 16 106.6 16 100V28C16 21.4 18.8 16 24 16Z"
    stroke="#F3F8FF"
    stroke-opacity="0.12"
    stroke-width="2"
    stroke-linejoin="round"
  />

  <path
    d="M30 64H96"
    stroke="#EAF5FF"
    stroke-opacity="0.22"
    stroke-width="4"
    stroke-linecap="round"
  />
</svg>
